Coordinates
version=1
nRows=65
nColumns=12
inDegrees=yes

Units are S.I. units (second, meters, Newtons, ...)
Angles are in degrees

endheader
time	SC_y	SC_z	SC_x	AC_y	AC_z	AC_x	GH_y	GH_z	GH_yy	EL_x	PS_y
       0.0              -48.29          9.313          75.12          67.61          3.506          16.63         -103.6          29.47          124.4          75.02          20.85
  0.003527              -48.28          9.317          75.12          67.61          3.503          16.63         -103.6          29.48          124.3          75.01          20.86
  0.007054              -48.28          9.321          75.11          67.61          3.501          16.63         -103.6          29.49          124.3          75.01          20.87
   0.01058              -48.27          9.326          75.11           67.6          3.498          16.62         -103.6           29.5          124.3          75.01          20.88
   0.01411              -48.27           9.33           75.1           67.6          3.495          16.62         -103.6          29.51          124.2           75.0           20.9
   0.01764              -48.26          9.335          75.09           67.6          3.492          16.61         -103.6          29.52          124.2           75.0          20.91
   0.02116              -48.25          9.341          75.09          67.59          3.488          16.61         -103.6          29.53          124.1           75.0          20.92
   0.02469              -48.24          9.347          75.08          67.59          3.485           16.6         -103.5          29.54          124.1          74.99          20.93
   0.02822              -48.24          9.353          75.07          67.58          3.481           16.6         -103.5          29.56          124.0          74.99          20.95
   0.03174              -48.23           9.36          75.06          67.58          3.477          16.59         -103.5          29.57          124.0          74.98          20.97
   0.03527              -48.22          9.367          75.06          67.57          3.472          16.58         -103.5          29.59          123.9          74.98          20.98
    0.0388              -48.21          9.375          75.05          67.57          3.468          16.58         -103.5           29.6          123.9          74.97           21.0
   0.04232               -48.2          9.383          75.04          67.56          3.462          16.57         -103.5          29.62          123.8          74.96          21.02
   0.04585              -48.19          9.392          75.02          67.55          3.457          16.56         -103.5          29.64          123.7          74.96          21.04
   0.04938              -48.18          9.402          75.01          67.55          3.451          16.55         -103.5          29.66          123.6          74.95          21.07
   0.05291              -48.16          9.412           75.0          67.54          3.444          16.54         -103.4          29.69          123.5          74.94          21.09
   0.05643              -48.15          9.424          74.99          67.53          3.437          16.53         -103.4          29.71          123.5          74.93          21.12
   0.05996              -48.14          9.436          74.97          67.52           3.43          16.52         -103.4          29.74          123.3          74.92          21.15
   0.06349              -48.12           9.45          74.95          67.51          3.421           16.5         -103.4          29.77          123.2          74.91          21.18
   0.06701               -48.1          9.465          74.93           67.5          3.412          16.49         -103.4           29.8          123.1           74.9          21.22
   0.07054              -48.08          9.482          74.91          67.49          3.402          16.47         -103.3          29.84          123.0          74.89          21.26
   0.07407              -48.06            9.5          74.89          67.48          3.391          16.46         -103.3          29.87          122.8          74.88           21.3
   0.07759              -48.03           9.52          74.87          67.46          3.378          16.44         -103.3          29.92          122.7          74.86          21.35
   0.08112              -48.01          9.542          74.84          67.45          3.365          16.42         -103.2          29.97          122.5          74.85           21.4
   0.08465              -47.98          9.566          74.81          67.43          3.349          16.39         -103.2          30.02          122.3          74.83          21.46
   0.08818              -47.94          9.594          74.77          67.41          3.332          16.37         -103.1          30.08          122.0          74.81          21.53
    0.0917              -47.91          9.625          74.74          67.39          3.313          16.34         -103.1          30.15          121.8          74.79           21.6
   0.09523              -47.86          9.659          74.69          67.36          3.292          16.31         -103.0          30.22          121.5          74.76          21.68
   0.09876              -47.82          9.699          74.64          67.33          3.268          16.27         -103.0          30.31          121.2          74.73          21.78
    0.1023              -47.76          9.743          74.59           67.3          3.241          16.23         -102.9           30.4          120.8           74.7          21.88
    0.1058               -47.7          9.794          74.53          67.26          3.209          16.18         -102.8          30.51          120.4          74.66          22.01
    0.1093              -47.63          9.852          74.45          67.22          3.174          16.12         -102.7          30.64          119.9          74.62          22.14
    0.1129              -47.55          9.919          74.37          67.17          3.132          16.06         -102.6          30.78          119.3          74.57          22.31
    0.1164              -47.45          9.997          74.27          67.12          3.084          15.99         -102.5          30.95          118.7          74.51          22.49
    0.1199              -47.34          10.09          74.16          67.05          3.028           15.9         -102.3          31.15          117.9          74.44          22.71
    0.1234              -47.21           10.2          74.03          66.97          2.961           15.8         -102.1          31.38          117.0          74.36          22.97
     0.127              -47.05          10.32          73.87          66.88          2.882          15.68         -101.9          31.66          116.0          74.27          23.28
    0.1305              -46.86          10.48          73.68          66.77          2.788          15.53         -101.7          31.99          114.7          74.15          23.64
     0.134              -46.64          10.66          73.45          66.63          2.674          15.35         -101.3          32.39          113.1          74.02          24.09
    0.1376              -46.36          10.89          73.17          66.47          2.534          15.14         -101.0          32.88          111.2          73.85          24.63
    0.1411              -46.02          11.17          72.82          66.26          2.361          14.87         -100.5          33.49          108.9          73.64           25.3
    0.1446              -45.59          11.52          72.39          66.01          2.146          14.54         -99.91          34.24          106.0          73.39          26.14
    0.1481              -45.05          11.96          71.84          65.69          1.876          14.13         -99.17           35.2          102.3          73.06          27.19
    0.1517              -44.37          12.52          71.15          65.29          1.531           13.6         -98.23          36.41          97.69          72.65          28.53
    0.1552               -43.5          13.23          70.26          64.77          1.091          12.92         -97.03          37.95          91.74          72.12          30.25
    0.1587              -42.38          14.15          69.12           64.1         0.5249          12.05          -95.5          39.94          84.09          71.44          32.45
    0.1622              -40.95          15.32          67.67          63.25        -0.1975          10.94         -93.53          42.48          74.33          70.57          35.26
    0.1658              -39.14           16.8          65.84          62.18         -1.106           9.54         -91.06          45.67          62.05          69.48          38.79
    0.1693              -36.95           18.6          63.61          60.88         -2.213          7.837         -88.04          49.56          47.09          68.16          43.09
    0.1728              -34.41          20.68          61.03          59.36         -3.496          5.863         -84.55          54.06          29.74          66.62          48.08
    0.1764              -31.65          22.93          58.23          57.73         -4.885          3.725         -80.77          58.94          10.97          64.95          53.49
    0.1799               -28.9          25.19          55.43          56.09         -6.275          1.588         -76.99          63.82         -7.813          63.28          58.89
    0.1834              -26.35          27.27          52.85          54.58         -7.558        -0.3862          -73.5          68.33         -25.16          61.74          63.88
    0.1869              -24.16          29.07          50.62          53.28         -8.665         -2.089         -70.49          72.22         -40.12          60.41          68.19
    0.1905              -22.36          30.54          48.79          52.21         -9.573         -3.487         -68.02          75.41          -52.4          59.32          71.72
     0.194              -20.93          31.72          47.34          51.35          -10.3         -4.598         -66.05          77.95         -62.16          58.46          74.53
    0.1975               -19.8          32.64           46.2          50.69         -10.86         -5.468         -64.51          79.93          -69.8          57.78          76.73
     0.201              -18.93          33.35          45.31          50.17          -11.3         -6.146         -63.31          81.48         -75.76          57.25          78.44
    0.2046              -18.25          33.91          44.62          49.76         -11.65         -6.676         -62.37          82.69         -80.42          56.84          79.78
    0.2081              -17.71          34.35          44.07          49.44         -11.92         -7.093         -61.64          83.64         -84.08          56.51          80.84
    0.2116              -17.28           34.7          43.64          49.19         -12.13         -7.424         -61.05           84.4         -86.98          56.25          81.67
    0.2151              -16.94          34.98          43.29          48.99          -12.3         -7.689         -60.58           85.0         -89.31          56.05          82.34
    0.2187              -16.67          35.21          43.01          48.82         -12.44         -7.904          -60.2          85.49          -91.2          55.88          82.89
    0.2222              -16.44          35.39          42.78          48.69         -12.56          -8.08         -59.89          85.89         -92.75          55.74          83.33
    0.2257              -16.25          35.54          42.59          48.58         -12.65         -8.225         -59.63          86.23         -94.02          55.63           83.7
